<svg id="Capa_1" enable-background="new 0 0 512 512" height="512" viewBox="0 0 512 512" width="512" xmlns="http://www.w3.org/2000/svg"><g><g><g><g><g><g><g><g><g><circle cx="256" cy="256" fill="#a3d4ff" r="256"/></g></g></g></g></g></g></g></g><path d="m511.68 268.904-173.272-173.271-210.313 324.791 88.573 88.573c12.822 1.977 25.957 3.003 39.332 3.003 137.058 0 248.958-107.707 255.68-243.096z" fill="#65b1fc"/><g><path d="m128.095 420.424 14.971-253.953c3.525-59.789 53.04-106.471 112.934-106.471 59.894 0 109.409 46.682 112.933 106.472l14.971 253.953s-59.395 60.339-127.905 25.596c-60.49-30.677-127.904-25.597-127.904-25.597z" fill="#fff"/></g><g><path d="m368.933 166.472c-3.522-59.75-52.973-106.408-112.813-106.47v386.078c68.458 34.611 127.784-25.655 127.784-25.655z" fill="#e9edf5"/></g><g><g><path d="m206.767 205.594h-2.602c-11.515 0-20.851-9.335-20.851-20.851v-24.753c0-11.515 9.335-20.851 20.851-20.851h2.602c11.515 0 20.851 9.335 20.851 20.851v24.754c0 11.515-9.335 20.85-20.851 20.85z" fill="#555a66"/></g><g><path d="m307.835 205.594h-2.602c-11.515 0-20.851-9.335-20.851-20.851v-24.753c0-11.515 9.335-20.851 20.851-20.851h2.602c11.515 0 20.851 9.335 20.851 20.851v24.754c-.001 11.515-9.336 20.85-20.851 20.85z" fill="#333940"/></g></g></g></svg>